<?xml version="1.0" encoding="utf-8"?>
<!-- Generator: Adobe Illustrator 19.1.0, SVG Export Plug-In . SVG Version: 6.00 Build 0)  -->
<svg version="1.1" class="onesignal-bell-svg" xmlns="http://www.w3.org/2000/svg" xmlns:xlink="http://www.w3.org/1999/xlink" x="0px" y="0px"
	 width="99.7px" height="99.7px" viewBox="0 0 99.7 99.7" style="enable-background:new 0 0 99.7 99.7;" xml:space="preserve">
<g>
	<circle class="background" cx="49.9" cy="49.9" r="49.9"/>
	<g id="Layer_2">
		<g>
			<path class="foreground" d="M50.1,66.2H27.7c0,0-2-0.2-2-2.1c0-1.9,1.7-2,1.7-2s6.7-3.2,6.7-5.5c0-2.3-1.1-3.9-1.1-13.3
				s6-16.6,13.2-16.6c0,0,1-2.4,3.9-2.4c2.8,0,3.8,2.4,3.8,2.4c7.2,0,13.2,7.2,13.2,16.6s-1,11-1,13.3c0,2.3,6.7,5.5,6.7,5.5
				s1.7,0.1,1.7,2c0,1.8-2.1,2.1-2.1,2.1H50.1z"/>
			<path class="foreground" d="M42.9,68.5h14.5c0,0-1,6.3-7.2,6.3S42.9,68.5,42.9,68.5z"/>
			<ellipse class="stroke" cx="49.9" cy="49.9" rx="37.4" ry="36.9"/>
		</g>
	</g>
</g>
</svg>
