<?xml version="1.0" encoding="utf-8"?>
<!-- Generator: Adobe Illustrator 19.1.0, SVG Export Plug-In . SVG Version: 6.00 Build 0)  -->
<svg version="1.1" id="Layer_1" xmlns="http://www.w3.org/2000/svg" xmlns:xlink="http://www.w3.org/1999/xlink" x="0px" y="0px"
	 width="384px" height="384px" viewBox="-125 8 384 384" style="enable-background:new -125 8 384 384;" xml:space="preserve">
<style type="text/css">
	.bell-svg-icon{fill:#E54B4D;}
</style>
<g>
	<path class="bell-svg-icon" d="M192.7,169.9c0-97.6-52.5-130.8-101.6-138.2c0-0.5,0.1-1,0.1-1.6C91.2,17.8,80.3,8,67,8
		c-13.3,0-23.8,9.8-23.8,22.1c0,0.6,0,1.1,0.1,1.6c-49.2,7.5-102,40.8-102,138.4c0,113.8-28.3,126-66.3,158h384
		C221.2,296,192.7,283.7,192.7,169.9z"/>
	<path class="bell-svg-icon" d="M67.2,392c26.8,0,48.8-19.9,51.7-43H15.5C18.3,372.1,40.4,392,67.2,392z"/>
</g>
</svg>
